<svg xmlns="http://www.w3.org/2000/svg" width="800" height="310" viewBox="0 0 800 310">
<style>
.class-box { fill: #ffffff; stroke: #333; stroke-width: 1.5; }
.class-title { font: bold 14px sans-serif; fill: #111; }
.class-sep { stroke: #333; stroke-width: 1; }
.class-member { font: 11px monospace; fill: #333; }
.relation { stroke: #333; stroke-width: 1.5; fill: none; }
.inheritance { stroke: #333; stroke-width: 1.5; fill: white; }
.label { font: 10px sans-serif; fill: #555; }
</style>
<text x="400.0" y="25" text-anchor="middle" font-family="sans-serif" font-size="16" font-weight="bold">example_pkg.services</text>
<line x1="150.0" y1="175.0" x2="410.0" y2="175.0" class="relation" marker-end="url(#composition)"/>
<text x="280.0" y="175.0" class="label">user_service</text>
<defs>
<marker id="inheritance" viewBox="0 0 10 10" refX="5" refY="5" markerWidth="8" markerHeight="8" orient="auto-start-reverse"><path d="M 0 0 L 10 5 L 0 10 z" fill="white" stroke="#333"/></marker>
<marker id="composition" viewBox="0 0 10 10" refX="5" refY="5" markerWidth="8" markerHeight="8" orient="auto-start-reverse"><path d="M 0 5 L 5 0 L 10 5 L 5 10 z" fill="#333"/></marker>
</defs>
<rect x="40" y="100" width="220" height="157" class="class-box" rx="4"/>
<text x="150.0" y="118" text-anchor="middle" class="class-title">OrderService</text>
<line x1="40" y1="125" x2="260" y2="125" class="class-sep"/>
<text x="48" y="140" class="class-member">+user_service UserService</text>
<text x="48" y="154" class="class-member">+orders List[Order]</text>
<text x="48" y="168" class="class-member">+products List[Product]</text>
<line x1="40" y1="177" x2="260" y2="177" class="class-sep" stroke-dasharray="3,3"/>
<text x="48" y="182" class="class-member">+__init__(user_service: UserSe</text>
<text x="48" y="196" class="class-member">+add_product(product: Product)</text>
<text x="48" y="210" class="class-member">+create_order(user_id: int) Or</text>
<text x="48" y="224" class="class-member">+get_order_summary(order: Orde</text>
<text x="48" y="238" class="class-member">+process_payment(order: Order)</text>
<rect x="300" y="100" width="220" height="150" class="class-box" rx="4"/>
<text x="410.0" y="118" text-anchor="middle" class="class-title">UserService</text>
<line x1="300" y1="125" x2="520" y2="125" class="class-sep"/>
<text x="308" y="140" class="class-member">+users List[User]</text>
<text x="308" y="154" class="class-member">#_cache dict[int, User]</text>
<line x1="300" y1="163" x2="520" y2="163" class="class-sep" stroke-dasharray="3,3"/>
<text x="308" y="168" class="class-member">+__init__()</text>
<text x="308" y="182" class="class-member">+create_user(email: str, name:</text>
<text x="308" y="196" class="class-member">+find_by_email(email: str) Opt</text>
<text x="308" y="210" class="class-member">+list_users() List[User]</text>
</svg>